# File created by Blade
# Date/Time:  Mon Sep 22 17:38:34 2014
# Frame Rate: 120.000 fps
#------------------------------------------------------
:FULLY-SPECIFIED
:DEGREES
3088
root 2.661225 38.855172 5.822374 9.173355 14.144385 32.541815
RightUpLeg 4.422293 -11.689876 -26.636458
RightLeg 1.444757 -0.000000 -0.000000
RightFoot -16.720649 -23.879738 12.914775
RightToeBase 9.838477 -0.000000 -0.000000
LeftUpLeg -10.768701 20.565208 5.173325
LeftLeg 65.278378 -0.000000 -0.000000
LeftFoot 19.719996 27.228085 -27.356532
LeftToeBase -1.367449 -0.000000 0.000000
Spine 14.782692 4.502470 -5.893162
RightShoulder 3.647210 -16.052928 -22.242844
RightArm 36.372026 2.546648 46.448138
RightForeArm -0.974404 0.000000 115.363309
RightHand 1.685268 0.000000 -34.302361
RightHandThumb1 -24.326973 -0.000000 -32.862282
LeftShoulder -26.650042 38.223542 -14.913012
LeftArm 29.298694 -4.251135 -72.782320
LeftForeArm 30.563327 -0.000000 65.518632
LeftHand -29.047608 0.000000 13.779064
LeftHandThumb1 -26.253704 0.000000 33.147579
Head 13.495300 -3.331092 -23.410155
3089
root 2.688138 38.845788 5.835954 8.847638 14.067930 32.367040
RightUpLeg 4.658681 -11.449322 -26.546212
RightLeg 1.435299 -0.000000 -0.000000
RightFoot -16.725145 -23.928012 12.874693
RightToeBase 9.565234 -0.000000 -0.000000
LeftUpLeg -11.272011 21.310635 4.931125
LeftLeg 69.945022 -0.000000 -0.000000
LeftFoot 20.125490 26.748729 -26.789166
LeftToeBase -1.756790 -0.000000 0.000000
Spine 15.048024 4.418119 -5.695178
RightShoulder 3.692705 -15.928526 -22.264325
RightArm 36.475538 2.533279 46.350869
RightForeArm -0.945999 -0.000000 115.205527
RightHand 1.748070 -0.000000 -34.421783
RightHandThumb1 -24.326973 -0.000000 -32.862282
LeftShoulder -26.726542 38.265449 -14.920429
LeftArm 29.370128 -4.050498 -72.772073
LeftForeArm 30.380947 0.000000 66.138975
LeftHand -29.424647 0.000000 13.518189
LeftHandThumb1 -26.253704 0.000000 33.147579
Head 13.462849 -3.142526 -23.311584
3090
root 2.712546 38.833410 5.853894 8.485829 14.002789 32.148297
RightUpLeg 4.879380 -11.287231 -26.418443
RightLeg 1.530383 -0.000000 -0.000000
RightFoot -16.771026 -23.858758 12.872820
RightToeBase 9.786969 -0.000000 -0.000000
LeftUpLeg -11.657567 22.007341 4.780734
LeftLeg 74.520203 -0.000000 -0.000000
LeftFoot 20.174341 26.420875 -27.086397
LeftToeBase -1.526023 -0.000000 0.000000
Spine 15.335823 4.307631 -5.464243
RightShoulder 3.774678 -15.792782 -22.295413
RightArm 36.554961 2.527169 46.278201
RightForeArm -0.940597 -0.000000 115.055812
RightHand 1.750977 0.000000 -34.551352
RightHandThumb1 -24.326973 -0.000000 -32.862282
LeftShoulder -26.789147 38.285302 -14.896498
LeftArm 29.378396 -3.797144 -72.736872
LeftForeArm 30.271137 -0.000000 66.699703
LeftHand -29.316063 -0.000000 13.567441
LeftHandThumb1 -26.253704 0.000000 33.147579
Head 13.436643 -2.992326 -23.230376
3091
root 2.728249 38.815781 5.873914 8.129279 13.952014 31.853938
RightUpLeg 5.208540 -10.819767 -26.164067
RightLeg 1.354418 -0.000000 -0.000000
RightFoot -16.751148 -24.108116 12.888193
RightToeBase 9.564162 -0.000000 -0.000000
LeftUpLeg -12.002969 22.674301 4.732682
LeftLeg 78.983994 -0.000000 -0.000000
LeftFoot 20.609933 26.101356 -27.147812
LeftToeBase -1.613654 -0.000000 0.000000
Spine 15.594927 4.234500 -5.170559
RightShoulder 3.777248 -15.668453 -22.253756
RightArm 36.653392 2.515175 46.158307
RightForeArm -0.883646 0.000000 114.882822
RightHand 1.796975 -0.000000 -34.684249
RightHandThumb1 -24.326973 -0.000000 -32.862282
LeftShoulder -26.768968 38.325800 -14.850167
LeftArm 29.340458 -3.605272 -72.682971
LeftForeArm 30.212715 -0.000000 67.355146
LeftHand -29.252802 -0.000000 13.380134
LeftHandThumb1 -26.253704 0.000000 33.147579
Head 13.433107 -2.884240 -23.070347
3092
root 2.741185 38.796129 5.895396 7.805643 13.911700 31.526726
RightUpLeg 5.460952 -10.531782 -25.880999
RightLeg 1.282665 -0.000000 -0.000000
RightFoot -16.781965 -24.148072 12.930142
RightToeBase 9.638892 -0.000000 -0.000000
LeftUpLeg -12.275575 23.320963 4.736542
LeftLeg 83.274580 -0.000000 -0.000000
LeftFoot 20.963139 25.806149 -27.455775
LeftToeBase -1.088177 -0.000000 0.000000
Spine 15.772415 4.129604 -4.867986
RightShoulder 3.819360 -15.622268 -22.193211
RightArm 36.781493 2.550853 46.036652
RightForeArm -0.876587 -0.000000 114.691655
RightHand 1.819342 -0.000000 -34.815922
RightHandThumb1 -24.326973 -0.000000 -32.862282
LeftShoulder -26.773458 38.380302 -14.805253
LeftArm 29.294861 -3.405648 -72.622912
LeftForeArm 30.306719 -0.000000 67.920964
LeftHand -28.786786 -0.000000 13.334838
LeftHandThumb1 -26.253704 0.000000 33.147579
Head 13.503597 -2.770475 -22.888262
